<?xml version="1.0" encoding="utf-8"?>
<!-- Generator: Adobe Illustrator 23.0.1, SVG Export Plug-In . SVG Version: 6.00 Build 0)  -->
<svg version="1.1" id="f5860e3c-93a4-4c8c-a139-2d0f68b42f38"
	 xmlns="http://www.w3.org/2000/svg" xmlns:xlink="http://www.w3.org/1999/xlink" x="0px" y="0px" viewBox="0 0 1105.3 700.7"
	 style="enable-background:new 0 0 1105.3 700.7;" xml:space="preserve">
<style type="text/css">
	.st0{fill:#3F3D56;}
	.st1{fill:#D0CDE1;}
	.st2{fill:#009688;}
	.st3{opacity:0.2;fill:#009688;enable-background:new    ;}
	.st4{fill:#FF6584;}
	.st5{fill:#FFB8B8;}
	.st6{opacity:0.1;enable-background:new    ;}
	.st7{fill:#2F2E41;}
	.st8{fill:#575A89;}
</style>
<title>add_color</title>
<path class="st0" d="M53.5,614.9c9.7,35.9,42.9,58.1,42.9,58.1s17.5-35.9,7.8-71.8s-42.9-58.1-42.9-58.1S43.8,579,53.5,614.9z"/>
<path class="st0" d="M98.9,674.2l-1.3-0.1c-0.4,0-40.7-2.5-67.3-28.4C3.7,619.8,0.1,579.6,0.1,579.2L0,577.9l1.3,0.1
	c0.4,0,40.7,2.5,67.3,28.4c26.6,25.9,30.2,66.1,30.2,66.5L98.9,674.2z M2.6,580.3c0.9,7.2,6.1,41,29.4,63.7
	c23.3,22.6,57.2,27,64.4,27.7c-0.9-7.2-6.1-41-29.4-63.7l0,0C43.7,585.4,9.8,581,2.6,580.3z"/>
<circle class="st0" cx="886.2" cy="630.5" r="25.5"/>
<rect x="201.5" y="378.4" class="st1" width="348.3" height="295.8"/>
<path class="st0" d="M495.5,635H143.5V335.4h352.1V635z M147.2,631.2h344.5V339.1H147.2V631.2z"/>
<path class="st2" d="M368.6,257.4l-7.1,8.4c-2.5,2.8-6.9,3-9.7,0.5c-0.2-0.2-0.3-0.3-0.5-0.5l-7.1-8.4v-58.6h24.5L368.6,257.4z"/>
<path class="st0" d="M395.3,151.2h-13.1c3.6-5.2,5.5-11.4,5.5-17.7c0-17.3-14-47.6-31.3-47.6s-31.3,30.3-31.3,47.6
	c0,6.3,1.9,12.5,5.5,17.7h-13.1c-5.5,0-10,4.5-10,10v7.2c0,5.5,4.5,10,10,10h77.8c5.5,0,10-4.5,10-10v-7.2
	C405.2,155.7,400.8,151.2,395.3,151.2z"/>
<path class="st0" d="M356.3,276.3c-3.3,0-6.5-1.6-8.4-4.2L337,257.6V157h38.7v100.5l-10.9,14.5C362.8,274.8,359.7,276.3,356.3,276.3
	z M339,256.9l10.5,14c2.8,3.8,8.2,4.5,12,1.7c0.6-0.5,1.2-1.1,1.7-1.7l10.5-14V159H339V256.9z"/>
<path class="st2" d="M368.3,309c0,6.6-5.4,12-12,12s-12-5.4-12-12s12-20,12-20S368.3,302.4,368.3,309z"/>
<path class="st3" d="M495.3,379c-0.3,76.8-62.8,138.8-139.5,138.5c-76.4-0.3-138.2-62.1-138.5-138.5H495.3z"/>
<path class="st2" d="M471.3,378.4c-0.2,63.5-51.9,114.8-115.4,114.6c-63.2-0.2-114.3-51.4-114.6-114.6H471.3z"/>
<circle class="st0" cx="266.3" cy="36" r="32"/>
<circle class="st2" cx="356.3" cy="36" r="32"/>
<circle class="st1" cx="446.3" cy="36" r="32"/>
<rect x="35.3" y="673" class="st0" width="652.9" height="2.3"/>
<path class="st0" d="M910.4,675V250h195v425H910.4z M913.2,252.8v419.4h189.4V252.8H913.2z"/>
<rect x="944" y="306.1" class="st1" width="126.2" height="314.2"/>
<rect x="969.3" y="337" class="st2" width="75.7" height="75.7"/>
<rect x="1018.4" y="499.7" transform="matrix(0.866 -0.5 0.5 0.866 -120.0742 587.6856)" class="st4" width="36.5" height="36.5"/>
<rect x="965.1" y="463.2" class="st0" width="36.5" height="123.4"/>
<polygon class="st5" points="789.2,400.4 734.4,516.6 772.8,537.8 840.9,421.7 "/>
<polygon class="st6" points="789.2,400.4 734.4,516.6 772.8,537.8 840.9,421.7 "/>
<path class="st7" d="M736.9,500.7l-65.7,135l-37.1,37.1c0,0-51.1,0.6-31,20.1s82.1-3.6,82.1-3.6l-1.8,7.3l40.1-3.6l-1.2-14.6
	l-3.6-1.8c0,0,2.4-28-3.6-33.4s10.9-12.2,10.9-12.2l69.9-121.6L736.9,500.7z"/>
<path class="st5" d="M755.7,391.9c0,0-58.4,34.1-43.2,65.1s20.1,33.4,20.1,33.4l31-22.5l-5.5-12.8l60.8-35.3
	C819,419.9,772.1,384,755.7,391.9z"/>
<path class="st7" d="M719.2,486.2l83.3,133.2l8.5,37.1c0,0-30.4,38.3-7.9,40.7s48-33.4,49.3-49.9s3-26.8,3-26.8l6.1,2.4
	c0,0,18.2-29.2,9.1-32.8c-5.4-2.2-10.8-4-16.4-5.5c0,0-13.4-8.5-26.1-5.5c0,0,2.4-9.7,0-14s-67.4-111.6-67.4-111.6L719.2,486.2z"/>
<circle class="st5" cx="862.8" cy="94.5" r="33.4"/>
<path class="st5" d="M853.6,115.8c0,0,12.2,34.7,9.1,44.4s-27.4,55.3-27.4,55.3l3,21.3l60.8-93.7c0,0-15.2-20.1-10.9-34.1
	L853.6,115.8z"/>
<path class="st7" d="M876.1,374.9l-17.6,72.4c0,0-87.6-52.3-111.9-50.5c0,0,52.9-60.2,73-60.2S876.1,374.9,876.1,374.9z"/>
<path class="st8" d="M919.9,148c0,0-14-22.5-31-3c-17,19.5-48,70.5-48,70.5L843,201c0,0-19.2,14.5-20.4,33.4s-6.1,82.1-6.1,82.1
	l-7.9,26.8L884,387l12.2-20.7c0,0,45.6,8.5,50.5,3S918.3,275,918.3,275L919.9,148z"/>
<path class="st5" d="M853.6,274.5L817.1,325c0,0-43.8,17-36.5,31s44.4-21.3,44.4-21.3l54.7-48L853.6,274.5z"/>
<path class="st6" d="M889.5,153.5c0,0-26.8,42.6-28,74.8s-0.9,28.9-0.9,28.9L847.2,276l31.6,17.6L895,277c0,0,35.9-10.3,31.6-40.1
	s-6.7-85.1-12.8-85.1S889.5,153.5,889.5,153.5z"/>
<path class="st8" d="M890.7,147.4c0,0-26.8,42.6-28,74.8s1.8,32.8,1.8,32.8L848.2,277l30.4,16.4l17.6-22.5c0,0,35.9-10.3,31.6-40.1
	s-6.7-85.1-12.8-85.1S890.7,147.4,890.7,147.4z"/>
<path class="st7" d="M823.8,87.9c0,0-10.3-49.8,43.6-37.3c0,0,37.1-9.8,53,36.3l16.3,48.4l-6.3-2.8l-2.4,6.4l-9.7,3.3l-4.9-8.1
	l-1.3,10.3L832,158.7c0,0,34.6-24.2,32.2-62.6l-6.3,7.8L823.8,87.9z"/>
</svg>
