<?xml version="1.0" encoding="utf-8"?>
<!-- Generator: Adobe Illustrator 23.0.1, SVG Export Plug-In . SVG Version: 6.00 Build 0)  -->
<svg version="1.1" id="bc3896d4-aa68-4b30-a574-b72c1cf64d5a"
	 xmlns="http://www.w3.org/2000/svg" xmlns:xlink="http://www.w3.org/1999/xlink" x="0px" y="0px" viewBox="0 0 990.8 595.8"
	 style="enable-background:new 0 0 990.8 595.8;" xml:space="preserve">
<style type="text/css">
	.st0{fill:#E6E8EC;}
	.st1{fill:#3F3D56;}
	.st2{fill:#B382AD;}
	.st3{fill:#344D48;}
	.st4{fill:#FFB8B8;}
	.st5{fill:#D0CDE1;}
	.st6{fill:#2F2E41;}
	.st7{fill:#3C4C54;}
	.st8{fill:#FFFFFF;}
</style>
<title>Add_friends</title>
<rect x="365.6" y="101.5" class="st0" width="525.1" height="377.8"/>
<path class="st1" d="M990.8,480.5H364.4V7.3h626.5V480.5z M366.8,478.1h621.7V9.7H366.8V478.1z"/>
<circle class="st1" cx="394.5" cy="33.9" r="12.1"/>
<circle class="st1" cx="428.3" cy="33.9" r="12.1"/>
<circle class="st1" cx="462.1" cy="33.9" r="12.1"/>
<rect x="499.3" y="160.5" class="st1" width="257.6" height="2.9"/>
<rect x="499.3" y="180.8" class="st1" width="257.6" height="2.9"/>
<rect x="499.3" y="201" class="st1" width="257.6" height="2.9"/>
<rect x="499.3" y="242.6" class="st1" width="257.6" height="2.9"/>
<rect x="499.3" y="262.8" class="st1" width="257.6" height="2.9"/>
<rect x="499.3" y="283.1" class="st1" width="257.6" height="2.9"/>
<path class="st2" d="M627.7,461.2c-35.3,0-64-28.6-64-64s28.6-64,64-64s64,28.6,64,64v0C691.7,432.5,663.1,461.1,627.7,461.2z
	 M627.7,335.6c-34,0-61.6,27.6-61.6,61.6c0,34,27.6,61.6,61.6,61.6s61.6-27.6,61.6-61.6C689.3,363.2,661.7,335.7,627.7,335.6
	L627.7,335.6z"/>
<polygon class="st2" points="659.1,394.8 630.2,394.8 630.2,365.8 625.3,365.8 625.3,394.8 596.4,394.8 596.4,399.6 625.3,399.6 
	625.3,428.6 630.2,428.6 630.2,399.6 659.1,399.6 "/>
<path class="st3" d="M122.3,432.8c0,0-25.3,27.8-29,91.7s-4.8,71.2-4.8,71.2h90.5l16.9-43.5l19.3,43.5H301c0,0,9.7-132.8,0-136.4
	S122.3,432.8,122.3,432.8z"/>
<circle class="st4" cx="243.7" cy="62.8" r="43.5"/>
<path class="st4" d="M204.4,65.9l-8.4,77.3l59.1,7.2c0,0,2.4-67.6,3.6-70S204.4,65.9,204.4,65.9z"/>
<path class="st4" d="M372.2,230l25.3,49.5c0,0,33.8,49.5,42.2,90.5s16.9,60.4,16.9,60.4s43.5,62.8,19.3,73.6s-44.7-70-44.7-70
	L365,313.3l-38.6-62.8L372.2,230z"/>
<path class="st4" d="M132,242.1l-8.4,36.2l-79.7,105c0,0-64,48.3-37.4,59.1S65.6,399,65.6,399l99-86.9l-4.8-70H132z"/>
<path class="st5" d="M193.6,127.4c0,0,35.8,15,62.6-3.3c0,0,65.4,10.6,69,14.2s-3.6,112.3-3.6,112.3L307,312.1
	c0,0,20.5,94.2-9.7,118.3l6,32.6c0,0-134,9.7-187.1-22.9l9.7-32.6l25.3-102.6l-15.7-142.4C135.6,162.4,147.7,129.8,193.6,127.4z"/>
<path class="st5" d="M294.3,143.7l31.4-4.8c0,0,15.7,2.4,30.2,32.6s30.2,70,30.2,70l-54.3,24.1l-44.7-70L294.3,143.7z"/>
<path class="st5" d="M142.9,156.4l-7.2,6c0,0-9.7,35-9.7,59.1v32.6l43.5,4.8L142.9,156.4z"/>
<path class="st6" d="M200.2,74.6c0,0-5.9-6.4-5.3-14.4c0.4-4.5,0.1-9.1-0.9-13.6c0,0,1.8-13.1,4.6-20.6s0.4-10.2,12.2-14.3
	s4.3-19.1,38.9-7.2c2.7,2.7,6.8,3.5,10.3,2.1c6.4-2.3,10.2,6.4,10.2,6.4s4-3.3,6.2,0.1s13-4.3,17,20.4s-9.6,46.8-9.6,46.8
	s-1.9-39.6-24.4-40.3s-47.9-9.2-51,7.4S200.2,74.6,200.2,74.6z"/>
<rect x="9.5" y="351.3" class="st7" width="453.9" height="163"/>
<path class="st2" d="M171,483.2c0,0-0.1,0-0.1,0c-1.2,0.2-2.4,0.4-3.6,0.5c-0.4,0-0.8,0.1-1.2,0.1c-0.4,0-0.8,0.1-1.3,0.1
	c-0.7,0-1.4,0.1-2.1,0.1c-0.3,0-0.6,0-0.9,0h-0.2c-0.4,0-0.7,0-1.1,0c-0.3,0-0.7,0-1,0c-0.2,0-0.4,0-0.5,0
	c-28-1.5-49.4-25.4-47.9-53.4c1.5-28,25.4-49.4,53.4-47.9c8,0.4,15.8,2.7,22.7,6.8c-24.2,14-32.5,45.1-18.5,69.3
	c4.4,7.7,10.8,14,18.5,18.5C182.1,480.2,176.7,482.2,171,483.2z"/>
<path class="st2" d="M247.3,473.1c1.9,1.5,4,2.9,6.1,4.2c-7.7,4.5-16.4,6.8-25.3,6.8h-0.7c-28-0.3-50.4-23.3-50.1-51.3
	c0.3-28,23.3-50.4,51.3-50.1c8.7,0.1,17.3,2.5,24.8,6.8c-24.2,13.9-32.5,44.9-18.6,69.1C238,464.2,242.2,469.1,247.3,473.1z"/>
<path class="st2" d="M345,433.4c0,28-22.7,50.7-50.7,50.7c-28,0-50.7-22.7-50.7-50.7c0-28,22.7-50.7,50.7-50.7h0
	C322.3,382.7,345,405.4,345,433.4C345,433.4,345,433.4,345,433.4z"/>
<path class="st8" d="M314.9,473.2c0,2.3-0.2,4.6-0.7,6.8c-12.7,5.4-27,5.4-39.7,0c-0.5-2.2-0.7-4.5-0.7-6.8c0-11.9,6.1-22,14.4-25.4
	c-8-3.4-11.7-12.6-8.4-20.5c3.4-8,12.6-11.7,20.5-8.4s11.7,12.6,8.4,20.5c-1.6,3.8-4.6,6.8-8.4,8.4
	C308.8,451.2,314.9,461.3,314.9,473.2z"/>
<path class="st8" d="M247.3,473.1v0.2c-0.2,2.8-0.6,5.7-1.2,8.4c-5.9,2.5-11.9,2.3-18.7,2.4h-0.7c-6.8,0-13.6-1.4-19.8-4
	c0-0.2-0.1-0.4-0.1-0.6c-0.4-2-0.6-4.1-0.6-6.2c0-11.9,6.1-22,14.4-25.4c-8-3.4-11.7-12.6-8.4-20.5c2.4-5.8,8.1-9.6,14.5-9.6
	c1.2,0,2.5,0.1,3.6,0.4C224.1,438.2,230.8,460.1,247.3,473.1L247.3,473.1z"/>
<path class="st8" d="M182.1,473.9c0,2.1-0.2,4.1-0.7,6.1c-4.5,1.9-9.3,3.2-14.1,3.7c-0.4,0-0.8,0.1-1.2,0.1c-0.4,0-0.8,0.1-1.3,0.1
	c-0.7,0-1.4,0.1-2.1,0.1c-0.1,0-0.3,0-0.4,0h-0.7c-0.4,0-0.7,0-1.1,0c-0.3,0-0.7,0-1,0c-0.2,0-0.4,0-0.5,0c-5.9-0.3-11.8-1.6-17.2-4
	c0,0,0-0.1,0-0.1c0-0.2-0.1-0.4-0.1-0.5c-0.4-2-0.6-4.1-0.6-6.2c0-11.9,6.1-22,14.4-25.4c-8-3.4-11.7-12.6-8.4-20.5
	c2.4-5.8,8.1-9.6,14.5-9.6c0.9,0,1.7,0.1,2.6,0.2C157.6,438.5,164.8,461,182.1,473.9L182.1,473.9z"/>
</svg>
